PathFileType	4	(X/Y/Z)	C:\Users\°ÂÌØÂü\Desktop\20210112\bx_n_0_901-Unnamed.trc
DataRate	CameraRate	NumFrames	NumMarkers	Units	OrigDataRate	OrigDataStartFrame	OrigNumFrames
50.00	50.00	       7	0	mm	50.00	232	       370
Frame#	Time	
		

232	4.620	-676.54315	168.41298	160.72050	-727.44818	67.21712	219.65367	-728.49713	213.58607	794.20966	-733.60205	-7.13248	802.75140	-833.29578	286.37701	870.55334	-330.65283	-76.00078	1094.14758				-812.21460	278.86847	734.88397	-828.46649	257.23529	626.48267	-782.89178	72.28555	566.87671				-741.65900	15.00715	524.99426	-805.02283	248.01961	568.66467	-747.84601	201.58661	537.72180	-827.22076	263.67691	489.61096				-647.06110	-66.83140	161.54550	-721.52777	152.33466	220.87543	-768.19092	229.58116	203.42442	-605.54102	-72.69646	155.79037	-882.59430	296.10809	144.64571	-675.44141	52.19258	161.35828	-600.73480	30.25324	166.79208	-549.53046	-21.93694	162.15215	-517.81085	-72.96118	143.22667	-590.40607	206.33287	172.84734	-651.20288	290.23557	157.41891	-614.58246	295.87204	158.67145	-553.71759	240.66403	164.89197	-528.07892	303.89874	146.50529	-53.56026	118.35133	1217.09692	-797.17822	183.56456	182.14848	-343.02469	275.77853	1111.05811	-794.63800	35.66810	173.50337	-886.72766	88.85368	1111.85095	-823.45892	-50.00229	476.62875	-763.31793	-22.27785	204.16437	-875.87213	-78.71808	140.99890	-778.13660	140.97343	571.58868	-816.42529	-69.37353	747.44946	-801.00317	-37.11856	609.02802	-799.37421	-34.86155	562.75629				-821.18677	-75.38878	864.87555	
233	4.640	-676.65540	168.28029	160.77853	-727.78461	66.84451	219.64598	-728.52026	213.91190	794.44672	-733.81061	-7.15998	802.87225	-833.52997	285.90652	870.32281	-332.04739	-76.49598	1100.35901				-812.48444	279.08322	734.89557	-828.47559	257.27036	626.41705	-782.95117	72.13216	566.45862				-741.76178	15.20038	524.99359	-805.21582	248.10324	568.42200	-748.02051	201.62601	537.60974	-827.63940	263.80325	489.69620				-647.08783	-66.80814	161.48886	-721.45465	152.44656	221.00426	-768.08276	229.53300	203.21700	-605.54004	-72.87661	155.90375	-882.70435	296.04880	144.58080	-675.57318	52.17473	161.42839	-600.79205	30.22965	166.69534	-549.65863	-21.85903	162.09135	-517.81085	-72.96118	143.22667	-590.26312	206.67061	173.02159	-651.27295	290.16675	157.40892	-614.60565	296.03082	158.50041	-553.64594	240.65948	164.95322	-528.03448	304.02316	146.61279	-56.44147	117.46727	1227.12939	-797.30194	183.85915	181.92798	-344.20062	275.23007	1117.24622	-794.69727	35.74743	173.46983	-887.67859	88.90683	1111.52295	-823.79834	-50.02995	476.69788	-763.37585	-22.22262	204.05672	-875.81091	-78.61859	141.02760	-778.24017	140.99976	571.67133	-816.70709	-69.29159	747.32635	-801.27734	-36.88692	608.97070	-799.62347	-34.82848	562.50885				-821.44733	-75.36984	864.80914	
234	4.660	-676.74915	168.52449	160.95714	-727.57941	66.58300	219.60121	-728.85803	213.78889	794.51392	-734.16901	-7.39515	802.87396	-833.61224	286.12354	870.44543	-333.36722	-76.80988	1106.87158				-812.69824	279.08456	734.88684	-828.43677	257.32324	625.81818	-783.34021	72.32191	566.34283				-742.32031	15.11516	524.79114	-805.70428	248.31314	568.51508	-748.17023	201.78096	537.54913	-827.92017	263.88806	489.58572				-647.07239	-66.82579	161.68399	-721.23474	152.53459	221.01184	-768.18896	229.60190	203.25142	-605.68341	-72.77029	155.80464	-882.70435	296.04880	144.58080	-675.45935	52.08954	161.31664	-600.78149	30.03553	166.68787	-549.58594	-21.91912	162.12366	-517.83282	-72.87903	143.14296	-590.26312	206.67061	173.02159	-651.29688	290.32483	157.34378	-614.66614	296.21228	158.50438	-553.77557	240.73857	164.82959	-528.07892	303.89874	146.50529	-59.45253	116.53653	1237.12708	-797.25635	183.87080	181.77141	-345.18900	274.92545	1123.82849	-794.75415	35.79690	173.37796	-889.28711	89.22633	1111.22058	-823.96332	-50.08035	476.63327	-763.37732	-22.27228	203.99516	-875.95349	-78.78808	141.09819	-778.80090	141.39037	571.20563	-817.10132	-69.34914	747.31940	-801.61884	-36.84368	608.67334	-799.85266	-34.92037	562.62152				-821.69324	-75.23439	864.82428	
235	4.680	-676.63519	168.57094	160.84712	-727.51520	66.55111	219.52325	-729.20630	213.94620	794.36078	-734.36475	-7.25060	802.78705	-833.53595	286.10504	870.35999	-335.54739	-77.27104	1113.49304				-812.95844	279.04462	734.59668	-828.65558	257.28705	625.43793	-783.51782	72.35801	566.35974				-742.64001	15.04815	524.45837	-805.94238	248.43837	568.56219	-748.51172	202.14600	537.67908	-828.21887	264.20990	489.95825				-647.08954	-66.92130	161.25343	-721.32208	152.55742	221.10791	-768.29724	229.70311	203.41391	-605.60413	-72.88269	155.84456	-882.51166	296.04404	144.61668	-675.44141	52.19258	161.35828	-600.72314	30.16557	166.87065	-549.63037	-21.91546	162.06169	-517.83282	-72.87903	143.14296	-590.62500	206.63353	172.74161	-651.29688	290.32483	157.34378	-614.78467	296.19928	158.50237	-553.77771	240.53836	164.86665	-528.14368	303.88129	146.38759	-62.43397	116.01247	1247.68567	-797.26526	183.85294	181.80452	-346.77524	274.66528	1129.95227	-794.75415	35.79690	173.37796	-889.99066	89.30884	1110.93372	-824.35217	-49.95785	476.41415	-763.45947	-22.24641	203.93187	-875.85034	-78.68372	141.27127	-779.00385	141.85727	571.41602	-817.21405	-69.19366	747.32263	-802.18585	-37.18624	609.00293	-800.08856	-34.90569	562.54291				-822.09332	-74.90200	864.86627	
236	4.700	-676.59692	168.70013	160.94476	-727.65057	66.67368	219.62485	-729.26990	214.10858	794.11169	-734.57117	-7.24757	802.48157	-833.38483	285.83929	870.05524	-336.39426	-78.05833	1120.57373				-812.95844	279.04462	734.59668	-828.99957	257.22485	625.22797	-783.99957	72.31496	566.43689				-742.85028	14.58550	524.69202	-806.41895	248.64746	568.44556	-748.76117	202.14436	537.67358	-828.23389	264.00101	489.65070				-647.01434	-67.01189	161.17448	-721.33978	152.62234	221.20676	-768.43451	229.74915	203.49860	-605.67950	-73.01613	155.83244	-882.57593	295.99933	144.63803	-675.32758	52.10737	161.24651	-600.70538	29.87944	166.81430	-549.59180	-22.02097	162.04262	-517.83282	-72.87903	143.14296	-590.26312	206.67061	173.02159	-651.22333	290.34738	157.27295	-614.63544	296.33453	158.32228	-553.74237	240.67007	165.00912	-528.22888	303.96866	146.30122	-65.54039	114.93348	1258.26685	-797.45392	184.01534	181.68681	-348.53030	274.34198	1136.56689	-794.70837	35.81031	173.42079	-891.45795	89.73222	1110.53662	-824.65887	-49.19807	475.71954	-763.38336	-22.14681	203.86540	-875.80457	-78.52492	141.11989	-779.00385	141.85727	571.41602	-817.62329	-69.00607	747.16528	-802.69342	-37.31150	608.86975	-800.74384	-34.94797	562.18567				-822.39966	-74.71343	864.86206	
237	4.720	-676.59692	168.70013	160.94476	-727.68756	66.40841	219.55240	-729.19244	214.13249	794.00366	-734.66913	-7.09602	802.75415	-833.32159	286.44995	870.49237	-338.04300	-78.30821	1127.20117				-812.98755	279.12054	734.54022	-829.27588	257.42480	625.08600	-784.54449	72.25790	566.01910				-743.22668	14.75491	524.60138	-806.51617	248.78944	568.33282	-748.77448	202.26010	537.55292	-828.64838	264.07416	489.74445				-647.17920	-67.07322	161.18813	-721.24292	152.62570	221.32382	-768.43451	229.74915	203.49860	-605.83057	-73.06695	155.80840	-882.63312	296.06870	144.61478	-675.32758	52.10737	161.24651	-600.72253	29.96777	166.74297	-549.57837	-22.03235	162.07344	-517.97510	-72.85950	143.01108	-590.50336	206.59404	172.88397	-651.40961	290.32217	157.07294	-614.84167	296.60043	158.23584	-553.74237	240.67007	165.00912	-528.16156	303.59097	146.44606	-68.82106	114.43543	1269.37061	-797.53857	183.95087	181.72707	-350.15125	273.89206	1143.18018	-794.79346	35.81533	173.61713	-891.96063	89.81281	1110.48657	-824.97455	-49.27308	475.81918	-763.46002	-22.07014	203.86969	-875.88159	-78.69018	141.14127	-779.00385	141.85727	571.41602	-817.81921	-68.87653	747.03192	-802.87756	-37.59046	609.05811	-801.25140	-34.94560	562.20587				-822.58911	-74.39799	864.76343	
238	4.740	-676.72437	168.73100	161.02841	-727.95697	66.70184	219.67513	-728.96735	214.10704	794.06677	-734.49487	-7.09858	802.76373	-833.03662	286.27383	870.27338	-339.92462	-78.42463	1134.29309				-812.98755	279.12054	734.54022	-829.66943	257.39575	625.18036	-784.88287	72.12931	565.89252				-743.43463	14.56423	524.72375	-806.74756	248.88188	568.38495	-748.95502	202.36432	537.38586	-829.02515	263.71506	489.21652				-647.26727	-67.19501	161.04732	-721.34711	152.76288	221.27885	-768.43451	229.74915	203.49860	-605.95306	-73.23753	155.96295	-882.58197	295.98587	144.65683	-675.57318	52.17473	161.42839	-600.76630	29.57096	166.92058	-549.63434	-22.08065	162.08029	-517.81085	-72.96118	143.22667	-590.48743	206.60208	172.89034	-651.48389	290.30731	157.13338	-614.83759	296.54257	158.26649	-553.93640	240.89313	164.88754	-528.00568	303.99368	146.63451	-72.57533	113.45532	1280.40369	-797.51935	184.02127	181.73596	-351.65866	273.38354	1150.23718	-794.93256	35.77927	173.51251	-892.95740	89.83506	1110.02588	-825.12427	-49.86306	475.77386	-763.45947	-22.24641	203.93187	-875.97003	-78.68922	141.20143	-778.99799	142.09650	570.90912	-817.93042	-68.72501	747.07758	-803.19519	-37.56702	608.88501	-801.18872	-34.94613	562.16168				-822.76648	-74.45844	864.88171	
